<svg width="240" height="42" viewBox="0 0 240 42" fill="none" xmlns="http://www.w3.org/2000/svg">
<path d="M55.4591 10.6102V15.0402C55.4591 15.1202 55.3891 15.1902 55.3091 15.1902H53.5091C53.4291 15.1902 53.3591 15.1202 53.3591 15.0402V10.6102C53.3591 10.5302 53.2891 10.4602 53.2091 10.4602H47.8191C47.6591 10.4602 47.5391 10.3302 47.5391 10.1802V9.09016C47.5391 8.93016 47.6691 8.81016 47.8191 8.81016H61.0791C61.2391 8.81016 61.3591 8.94016 61.3591 9.09016V10.1802C61.3591 10.3402 61.2291 10.4602 61.0791 10.4602H55.5991C55.5191 10.4602 55.4491 10.5302 55.4491 10.6102H55.4591ZM57.5991 2.26016V0.810156C57.5991 0.730156 57.6691 0.660156 57.7491 0.660156H59.5791C59.6591 0.660156 59.7291 0.730156 59.7291 0.810156V7.19016C59.7291 7.27016 59.6591 7.34016 59.5791 7.34016H49.3191C49.2391 7.34016 49.1691 7.27016 49.1691 7.19016V0.810156C49.1691 0.730156 49.2391 0.660156 49.3191 0.660156H51.1191C51.1991 0.660156 51.2691 0.730156 51.2691 0.810156V2.26016C51.2691 2.34016 51.3391 2.41016 51.4191 2.41016H57.4691C57.5491 2.41016 57.6191 2.34016 57.6191 2.26016H57.5991ZM57.3191 4.07016H51.5491C51.3891 4.07016 51.2691 4.20016 51.2691 4.35016V5.36016C51.2691 5.52016 51.3991 5.64016 51.5491 5.64016H57.3191C57.4791 5.64016 57.5991 5.51016 57.5991 5.36016V4.35016C57.5991 4.19016 57.4691 4.07016 57.3191 4.07016Z" fill="#004EA2"/>
<path d="M69.639 6.18008C70.129 6.62008 70.729 6.96008 71.439 7.21008C71.529 7.24008 71.569 7.35008 71.519 7.43008L70.579 8.84008C70.539 8.90008 70.469 8.92008 70.399 8.90008C69.639 8.63008 68.989 8.25008 68.439 7.76008C67.939 7.31008 67.519 6.78008 67.199 6.18008C67.139 6.07008 66.999 6.08008 66.949 6.18008C66.619 6.85008 66.179 7.44008 65.639 7.94008C65.059 8.48008 64.359 8.90008 63.549 9.19008C63.489 9.21008 63.409 9.19008 63.369 9.13008L62.369 7.71008C62.309 7.63008 62.349 7.52008 62.449 7.49008C63.189 7.24008 63.819 6.88008 64.329 6.42008C64.879 5.92008 65.289 5.35008 65.559 4.71008C65.829 4.07008 65.959 3.39008 65.969 2.68008V1.18008C65.969 1.10008 66.039 1.03008 66.119 1.03008H67.949C68.029 1.03008 68.099 1.10008 68.099 1.18008V2.69008C68.099 3.35008 68.219 3.99008 68.469 4.59008C68.719 5.19008 69.119 5.73008 69.649 6.20008L69.639 6.18008ZM64.679 14.7801V10.2101C64.679 10.1301 64.749 10.0601 64.829 10.0601H66.689C66.769 10.0601 66.839 10.1301 66.839 10.2101V13.0801C66.839 13.1601 66.909 13.2301 66.989 13.2301H74.769C74.929 13.2301 75.049 13.3601 75.049 13.5101V14.6301C75.049 14.7901 74.919 14.9101 74.769 14.9101H64.829C64.749 14.9101 64.679 14.8401 64.679 14.7601V14.7801ZM76.529 4.60008V6.10008C76.529 6.18008 76.459 6.25008 76.379 6.25008H74.629C74.549 6.25008 74.479 6.32008 74.479 6.40008V11.0201C74.479 11.1001 74.409 11.1701 74.329 11.1701H72.499C72.419 11.1701 72.349 11.1001 72.349 11.0201V0.230078C72.349 0.150078 72.419 0.0800781 72.499 0.0800781H74.329C74.409 0.0800781 74.479 0.150078 74.479 0.230078V4.30008C74.479 4.38008 74.549 4.45008 74.629 4.45008H76.379C76.459 4.45008 76.529 4.52008 76.529 4.60008Z" fill="#004EA2"/>
<path d="M80.0087 3.68008V9.83008C80.0087 9.91008 80.0787 9.98008 80.1587 9.98008H84.0787C84.1587 9.98008 84.2287 10.0501 84.2287 10.1301V11.6201C84.2287 11.7001 84.1587 11.7701 84.0787 11.7701H77.8887V1.97008C77.8887 1.89008 77.9587 1.82008 78.0387 1.82008H83.3687C83.4487 1.82008 83.5187 1.89008 83.5187 1.97008V3.38008C83.5187 3.46008 83.4487 3.53008 83.3687 3.53008H80.1587C80.0787 3.53008 80.0087 3.60008 80.0087 3.68008ZM88.5087 15.0401V7.89008C88.5087 7.73008 88.3787 7.61008 88.2287 7.61008H87.3387C87.1787 7.61008 87.0587 7.74008 87.0587 7.89008V14.3101C87.0587 14.3901 86.9887 14.4601 86.9087 14.4601H85.2587C85.1787 14.4601 85.1087 14.3901 85.1087 14.3101V0.480078C85.1087 0.400078 85.1787 0.330078 85.2587 0.330078H86.9087C86.9887 0.330078 87.0587 0.400078 87.0587 0.480078V5.62008C87.0587 5.78008 87.1887 5.90008 87.3387 5.90008H88.2287C88.3887 5.90008 88.5087 5.77008 88.5087 5.62008V0.230078C88.5087 0.150078 88.5787 0.0800781 88.6587 0.0800781H90.3687C90.4487 0.0800781 90.5187 0.150078 90.5187 0.230078V15.0401C90.5187 15.1201 90.4487 15.1901 90.3687 15.1901H88.6587C88.5787 15.1901 88.5087 15.1201 88.5087 15.0401Z" fill="#004EA2"/>
<path d="M92.3989 2.82V1.71C92.3989 1.55 92.5289 1.43 92.6789 1.43H95.5489C95.7089 1.43 95.8289 1.3 95.8289 1.15V0.28C95.8289 0.12 95.9589 0 96.1089 0H97.6489C97.8089 0 97.9289 0.13 97.9289 0.28V1.14C97.9289 1.3 98.0589 1.42 98.2089 1.42H101.059C101.219 1.42 101.339 1.55 101.339 1.7V2.81C101.339 2.97 101.209 3.09 101.059 3.09H92.6589C92.4989 3.09 92.3789 2.96 92.3789 2.81L92.3989 2.82ZM100.129 4.92C100.449 5.34 100.599 5.82 100.599 6.37C100.599 6.92 100.439 7.4 100.129 7.82C99.8189 8.24 99.3789 8.57 98.8089 8.8C98.2389 9.03 97.5989 9.15 96.8789 9.15C96.1589 9.15 95.5089 9.03 94.9389 8.8C94.3689 8.57 93.9289 8.24 93.6089 7.82C93.2889 7.4 93.1289 6.91 93.1289 6.37C93.1289 5.83 93.2889 5.34 93.6089 4.92C93.9289 4.5 94.3689 4.17 94.9389 3.94C95.5089 3.71 96.1589 3.59 96.8789 3.59C97.5989 3.59 98.2489 3.71 98.8089 3.94C99.3689 4.18 99.8089 4.5 100.129 4.92ZM102.259 15.04V12.03C102.259 11.95 102.189 11.88 102.109 11.88H94.4889C94.3289 11.88 94.2089 11.75 94.2089 11.6V10.48C94.2089 10.32 94.3389 10.2 94.4889 10.2H104.229C104.309 10.2 104.379 10.27 104.379 10.35V15.05C104.379 15.13 104.309 15.2 104.229 15.2H102.399C102.319 15.2 102.249 15.13 102.249 15.05L102.259 15.04ZM95.2089 6.38C95.2089 6.75 95.3489 7.04 95.6489 7.24C95.9489 7.44 96.3589 7.54 96.8789 7.54C97.3989 7.54 97.8189 7.44 98.1289 7.24C98.4389 7.04 98.5889 6.75 98.5889 6.38C98.5889 6.01 98.4289 5.7 98.1289 5.5C97.8189 5.29 97.4089 5.19 96.8789 5.19C96.3489 5.19 95.9489 5.29 95.6489 5.5C95.3489 5.71 95.1989 6 95.2089 6.38ZM106.429 4.15V5.58C106.429 5.66 106.359 5.73 106.279 5.73H104.529C104.449 5.73 104.379 5.8 104.379 5.88V9.42C104.379 9.5 104.309 9.57 104.229 9.57H102.399C102.319 9.57 102.249 9.5 102.249 9.42V0.23C102.249 0.15 102.319 0.08 102.399 0.08H104.229C104.309 0.08 104.379 0.15 104.379 0.23V3.85C104.379 3.93 104.449 4 104.529 4H106.279C106.359 4 106.429 4.07 106.429 4.15Z" fill="#004EA2"/>
<path d="M107.349 13.1999V11.7699C107.349 11.6899 107.419 11.6199 107.499 11.6199H110.139C110.219 11.6199 110.289 11.5499 110.289 11.4699V7.0199C110.289 6.9399 110.359 6.8699 110.439 6.8699H112.249C112.329 6.8699 112.399 6.9399 112.399 7.0199V11.3299C112.399 11.4899 112.529 11.6099 112.679 11.6099H113.769C113.929 11.6099 114.049 11.4799 114.049 11.3299V7.0199C114.049 6.9399 114.119 6.8699 114.199 6.8699H115.999C116.079 6.8699 116.149 6.9399 116.149 7.0199V11.4699C116.149 11.5499 116.219 11.6199 116.299 11.6199H120.979C121.059 11.6199 121.129 11.6899 121.129 11.7699V13.1999C121.129 13.2799 121.059 13.3499 120.979 13.3499H107.499C107.419 13.3499 107.349 13.2799 107.349 13.1999ZM119.879 3.0499V9.6799C119.879 9.7599 119.809 9.8299 119.729 9.8299H117.899C117.819 9.8299 117.749 9.7599 117.749 9.6799V3.2199C117.749 3.1399 117.679 3.0699 117.599 3.0699H108.989C108.829 3.0699 108.709 2.9399 108.709 2.7899V1.6799C108.709 1.5199 108.839 1.3999 108.989 1.3999H119.729C119.809 1.3999 119.879 1.4699 119.879 1.5499V3.0599V3.0499Z" fill="#004EA2"/>
<path d="M37.16 35.3409H24.03C19.97 35.3709 19.46 38.0409 19.46 38.0409C18.63 35.0009 14.72 35.3309 14.72 35.3309H1.88V16.5009H14.26C18.38 16.5809 19.47 19.8409 19.47 19.8409C20.82 16.5409 25.07 16.5109 25.07 16.5109H37.15V35.3409H37.16ZM24.24 14.6309C20.63 14.7409 19.5 16.8609 19.5 16.8609C18.35 14.6409 14.88 14.6409 14.88 14.6409H0V37.2009H14.57C16.56 37.2009 17.26 38.1309 17.49 38.8009H21.51C22.21 37.1109 24.24 37.2109 24.24 37.2109H39.05V14.6309H24.24Z" fill="#009A53"/>
<path d="M11.8792 25.1809H6.44922V30.6409H13.9192V30.6209V27.0509H15.8092V30.6409H23.2592V27.0509H25.1492V30.6309H32.6092V28.7409H27.1992V27.0509H32.6192V21.3809H25.1592V25.1709H23.2692V21.3809H21.2292V25.1709H17.8492V21.3809H15.8092V25.1709H13.9292V21.3809H6.45922V23.2609H11.8892V25.1709L11.8792 25.1809ZM11.8792 28.7709H8.48922V27.0609H11.8792V28.7709ZM21.2192 28.7709H17.8392V27.0609H21.2192V28.7709ZM27.1892 23.2709H30.5692V25.1809H27.1892V23.2709Z" fill="#009A53"/>
<path d="M18.4004 4.18984L20.2104 3.58984H18.4004V4.18984Z" fill="#004EA2"/>
<path d="M14.5 6.77969C15.16 6.07969 15.86 6.16969 15.86 6.46969C15.86 6.76969 15.52 7.11969 15.52 7.11969H11.24L8.89 3.73969C8.31 2.86969 7.56 2.48969 6.31 2.48969H0V12.6697C3.83 12.6697 13.27 12.6697 14.38 12.6697C18.63 12.7097 19.46 14.5197 19.46 14.5197C20.35 13.1097 22.06 12.6797 24.71 12.6797H39.05V2.48969H32.66C31.43 2.48969 30.68 2.86969 30.09 3.73969L27.69 7.11969H24.14V4.10969L26.57 1.72969H24.06L24.69 1.17969H19.6C18.58 1.17969 17.77 1.59969 17.48 2.17969H15.69C14.04 2.17969 13.44 3.10969 13.78 4.32969L14.51 6.78969L14.5 6.77969ZM37.16 10.7997H25.18C21.99 10.7997 20.5 11.0197 19.48 12.1197C18.39 11.0597 17.53 10.8097 14.34 10.8097H1.88V4.37969H5.8C6.19 4.37969 6.51 4.45969 6.72 4.56969C6.88 4.65969 7.16 4.84969 7.37 5.12969C7.63 5.48969 9.95 8.88969 9.95 8.88969H16.64C16.64 8.88969 17.26 7.59969 17.64 6.69969C18.03 5.78969 17.9 5.15969 17.07 5.08969C16.37 5.03969 15.93 5.19969 15.86 5.48969L15.56 4.47969C15.38 3.96969 15.51 3.58969 16.22 3.58969H18.39C18.39 3.58969 18.43 2.88969 19.63 2.88969H23.2L22.19 3.81969V8.88969H29.13C29.13 8.88969 31.34 5.48969 31.6 5.12969C31.8 4.84969 32.09 4.65969 32.24 4.56969C32.45 4.45969 32.77 4.35969 33.16 4.35969H37.15V10.8097L37.16 10.7997Z" fill="#004EA2"/>
<path d="M16.5195 32.6504C16.7795 32.5604 17.0095 32.3804 17.1395 32.1504H17.1495V33.7604C17.1495 33.9204 17.1395 34.0504 17.2895 34.1504L16.6895 34.1604C16.8695 34.0604 16.8495 33.9304 16.8495 33.7604V32.6604H16.5195V32.6504Z" fill="#009A53"/>
<path d="M18.0019 34.0402C18.4719 33.9502 18.8819 33.5302 18.8819 33.0502C18.8819 32.7602 18.7219 32.4402 18.3819 32.4402C18.1319 32.4402 17.9619 32.6302 17.9619 32.8702C17.9619 33.1302 18.1319 33.3402 18.4019 33.3402C18.5119 33.3402 18.6119 33.3102 18.7019 33.2502L18.5119 33.4902C18.4419 33.5202 18.3519 33.5302 18.2719 33.5302C17.9319 33.5302 17.6719 33.2802 17.6719 32.9402C17.6719 32.5202 18.0119 32.2402 18.4219 32.2402C18.8719 32.2402 19.1719 32.5902 19.1719 33.0202C19.1719 33.3402 18.9919 33.6602 18.7419 33.8602C18.4819 34.0702 18.1819 34.1702 17.8619 34.2102L18.0019 34.0302V34.0402Z" fill="#009A53"/>
<path d="M20.2891 33.5491C20.0391 33.5491 19.8291 33.5391 19.6791 33.5291L20.2891 32.4991V33.5491ZM20.2891 33.7691V33.8391C20.2891 33.9891 20.3091 34.0891 20.1491 34.1491L20.7091 34.1591C20.5791 34.0891 20.5791 33.9491 20.5791 33.8291V33.7691H20.8091L20.9491 33.4291C20.8491 33.5091 20.7191 33.5491 20.5791 33.5491V32.2891H20.1791L19.2891 33.7791H20.2991L20.2891 33.7691Z" fill="#009A53"/>
<path d="M22.3202 32.4107C22.1302 32.4407 21.9002 32.5807 21.7602 32.7107C21.5602 32.8907 21.4502 33.1307 21.4502 33.4007C21.4502 33.6907 21.6202 34.0107 21.9502 34.0107C22.2002 34.0107 22.3502 33.8207 22.3502 33.5707C22.3502 33.2907 22.2002 33.1007 21.9102 33.1007C21.8002 33.1007 21.6902 33.1307 21.5902 33.1907L21.7802 32.9607C21.8602 32.9207 21.9402 32.9107 22.0302 32.9107C22.3902 32.9107 22.6502 33.1507 22.6502 33.5107C22.6502 33.9107 22.3302 34.2007 21.9302 34.2007C21.4802 34.2007 21.1602 33.8407 21.1602 33.4007C21.1602 32.7207 21.8502 32.2807 22.4702 32.2207L22.3302 32.4007L22.3202 32.4107Z" fill="#009A53"/>
<path d="M57.1548 26.6378C57.098 26.0649 56.8542 25.6198 56.4233 25.3026C55.9924 24.9853 55.4077 24.8267 54.669 24.8267C54.1671 24.8267 53.7434 24.8977 53.3977 25.0398C53.0521 25.1771 52.7869 25.3688 52.6023 25.6151C52.4223 25.8613 52.3324 26.1406 52.3324 26.4531C52.3229 26.7135 52.3774 26.9408 52.4957 27.1349C52.6188 27.3291 52.7869 27.4972 53 27.6392C53.2131 27.7765 53.4593 27.8973 53.7386 28.0014C54.018 28.1009 54.3163 28.1861 54.6335 28.2571L55.9403 28.5696C56.5748 28.7116 57.1572 28.901 57.6875 29.1378C58.2178 29.3745 58.6771 29.6657 59.0653 30.0114C59.4536 30.357 59.7543 30.7642 59.9673 31.233C60.1851 31.7017 60.2964 32.2391 60.3011 32.8452C60.2964 33.7353 60.0691 34.5071 59.6193 35.1605C59.1742 35.8092 58.5303 36.3134 57.6875 36.6733C56.8494 37.0284 55.8385 37.206 54.6548 37.206C53.4806 37.206 52.4579 37.026 51.5866 36.6662C50.7202 36.3063 50.0431 35.7737 49.5554 35.0682C49.0724 34.358 48.8191 33.4796 48.7955 32.4332H51.7713C51.8045 32.9209 51.9441 33.3281 52.1903 33.6548C52.4413 33.9768 52.7751 34.2206 53.1918 34.3864C53.6132 34.5473 54.089 34.6278 54.6193 34.6278C55.1402 34.6278 55.5923 34.5521 55.9759 34.4006C56.3641 34.2491 56.6648 34.0384 56.8778 33.7685C57.0909 33.4986 57.1974 33.1884 57.1974 32.8381C57.1974 32.5114 57.1004 32.2367 56.9062 32.0142C56.7169 31.7917 56.4375 31.6023 56.0682 31.446C55.7036 31.2898 55.2562 31.1477 54.7259 31.0199L53.142 30.6222C51.9157 30.3239 50.9474 29.8575 50.2372 29.223C49.527 28.5885 49.1742 27.7339 49.179 26.6591C49.1742 25.7784 49.4086 25.009 49.8821 24.3509C50.3603 23.6927 51.0161 23.179 51.8494 22.8097C52.6828 22.4403 53.6297 22.2557 54.6903 22.2557C55.7699 22.2557 56.7121 22.4403 57.517 22.8097C58.3267 23.179 58.9564 23.6927 59.4062 24.3509C59.8561 25.009 60.0881 25.7713 60.1023 26.6378H57.1548ZM65.6438 37L61.4819 22.4545H64.8413L67.2489 32.5611H67.3697L70.0259 22.4545H72.9023L75.5515 32.5824H75.6793L78.087 22.4545H81.4464L77.2844 37H74.2873L71.5174 27.4901H71.4038L68.641 37H65.6438ZM82.6481 34.46H99.4281V36.64H82.6481V34.46ZM83.9281 21.84H98.0481V23.98H83.9281V21.84ZM84.0281 29.52H97.9881V31.64H84.0281V29.52ZM86.4481 23.82H89.1081V29.72H86.4481V23.82ZM92.8681 23.82H95.5281V29.72H92.8681V23.82ZM100.047 34.58H116.827V36.74H100.047V34.58ZM107.087 31.06H109.727V35.44H107.087V31.06ZM101.947 21.44H114.927V27.62H104.607V30.72H101.967V25.54H112.287V23.56H101.947V21.44ZM101.967 29.68H115.347V31.8H101.967V29.68ZM125.105 24.82H127.985V26.96H125.105V24.82ZM127.065 20.6H129.565V31.46H127.065V20.6ZM120.685 23.04H122.765V24.2C122.765 25.2267 122.618 26.22 122.325 27.18C122.045 28.1267 121.592 28.9667 120.965 29.7C120.352 30.4333 119.545 31 118.545 31.4L117.185 29.36C118.025 29.0267 118.698 28.5867 119.205 28.04C119.725 27.4933 120.098 26.8933 120.325 26.24C120.565 25.5733 120.685 24.8933 120.685 24.2V23.04ZM121.205 23.04H123.265V24.2C123.265 24.8533 123.372 25.4933 123.585 26.12C123.812 26.7467 124.165 27.3133 124.645 27.82C125.138 28.3133 125.772 28.7133 126.545 29.02L125.245 31.08C124.272 30.6933 123.485 30.1533 122.885 29.46C122.298 28.7667 121.872 27.9667 121.605 27.06C121.338 26.1533 121.205 25.2 121.205 24.2V23.04ZM117.765 21.56H125.965V23.7H117.765V21.56ZM130.685 20.26H133.225V31.54H130.685V20.26ZM120.485 32.22H133.225V38.78H130.565V34.34H120.485V32.22ZM136.803 29.78H149.823V31.88H136.803V29.78ZM134.843 34.5H151.623V36.66H134.843V34.5ZM136.803 21.6H149.683V23.72H139.503V30.36H136.803V21.6ZM138.683 25.68H149.263V27.74H138.683V25.68ZM153.062 21.6H160.982V23.72H153.062V21.6ZM155.342 25.92H157.962V30.54H155.342V25.92ZM159.942 21.6H162.562V22.76C162.562 23.4133 162.542 24.1933 162.502 25.1C162.475 25.9933 162.349 27.0267 162.122 28.2L159.542 27.9C159.742 26.7667 159.855 25.7867 159.882 24.96C159.922 24.1333 159.942 23.4 159.942 22.76V21.6ZM164.342 20.24H167.022V34.1H164.342V20.24ZM165.962 25.9H169.242V28.08H165.962V25.9ZM154.662 36.32H167.622V38.46H154.662V36.32ZM154.662 32.88H157.342V36.98H154.662V32.88ZM152.202 31.64L151.962 29.52C153.029 29.52 154.209 29.5133 155.502 29.5C156.795 29.4733 158.115 29.42 159.462 29.34C160.809 29.2467 162.102 29.1133 163.342 28.94L163.522 30.84C162.242 31.0667 160.935 31.24 159.602 31.36C158.269 31.4667 156.969 31.54 155.702 31.58C154.435 31.6067 153.269 31.6267 152.202 31.64ZM182.38 20.22H185.06V38.8H182.38V20.22ZM170.64 32.32H172.28C173.374 32.32 174.407 32.3067 175.38 32.28C176.354 32.24 177.307 32.18 178.24 32.1C179.174 32.0067 180.127 31.8733 181.1 31.7L181.38 33.84C179.887 34.1067 178.414 34.2867 176.96 34.38C175.52 34.46 173.96 34.5 172.28 34.5H170.64V32.32ZM170.6 21.8H179.34V28.98H173.34V33.14H170.64V26.88H176.64V23.94H170.6V21.8ZM191.539 21.68H193.719V24.36C193.719 25.56 193.612 26.7133 193.399 27.82C193.185 28.9133 192.859 29.94 192.419 30.9C191.992 31.8467 191.439 32.6867 190.759 33.42C190.092 34.14 189.299 34.7133 188.379 35.14L186.799 32.94C187.612 32.58 188.312 32.1067 188.899 31.52C189.499 30.92 189.992 30.24 190.379 29.48C190.765 28.7067 191.052 27.8867 191.239 27.02C191.439 26.1533 191.539 25.2667 191.539 24.36V21.68ZM192.059 21.68H194.219V24.36C194.219 25.2267 194.312 26.0733 194.499 26.9C194.685 27.7267 194.965 28.5067 195.339 29.24C195.725 29.9733 196.205 30.6267 196.779 31.2C197.365 31.76 198.052 32.2067 198.839 32.54L197.299 34.7C196.405 34.2867 195.625 33.7333 194.959 33.04C194.305 32.3467 193.765 31.5467 193.339 30.64C192.912 29.72 192.592 28.7333 192.379 27.68C192.165 26.6133 192.059 25.5067 192.059 24.36V21.68ZM199.739 20.22H202.399V38.8H199.739V20.22ZM211.317 21.32H213.617V22.66C213.617 23.46 213.504 24.24 213.277 25C213.064 25.7467 212.744 26.4533 212.317 27.12C211.891 27.7867 211.364 28.3933 210.737 28.94C210.124 29.4733 209.417 29.9333 208.617 30.32C207.817 30.7067 206.937 30.9933 205.977 31.18L204.837 28.96C205.664 28.8133 206.417 28.5933 207.097 28.3C207.791 27.9933 208.397 27.6267 208.917 27.2C209.437 26.7733 209.877 26.3133 210.237 25.82C210.597 25.3133 210.864 24.7933 211.037 24.26C211.224 23.7133 211.317 23.18 211.317 22.66V21.32ZM211.837 21.32H214.157V22.66C214.157 23.1933 214.244 23.7333 214.417 24.28C214.604 24.8267 214.871 25.3533 215.217 25.86C215.577 26.3533 216.017 26.8067 216.537 27.22C217.057 27.6333 217.657 27.9933 218.337 28.3C219.017 28.5933 219.784 28.8133 220.637 28.96L219.497 31.18C218.537 30.9933 217.657 30.7067 216.857 30.32C216.057 29.9333 215.344 29.4733 214.717 28.94C214.104 28.4067 213.577 27.8067 213.137 27.14C212.711 26.4733 212.384 25.76 212.157 25C211.944 24.24 211.837 23.46 211.837 22.66V21.32ZM204.437 34.34H221.217V36.52H204.437V34.34ZM229.656 24.7H232.456V26.84H229.656V24.7ZM222.536 28.5H223.816C224.696 28.5 225.482 28.4933 226.176 28.48C226.882 28.4533 227.556 28.4133 228.196 28.36C228.836 28.2933 229.496 28.2067 230.176 28.1L230.396 30.18C229.702 30.3 229.022 30.3933 228.356 30.46C227.702 30.5133 227.009 30.5533 226.276 30.58C225.542 30.5933 224.722 30.6 223.816 30.6H222.536V28.5ZM222.536 21.34H229.516V23.44H225.096V29.72H222.536V21.34ZM224.356 24.92H228.856V26.92H224.356V24.92ZM235.076 20.26H237.616V31.3H235.076V20.26ZM231.456 20.52H233.956V31.16H231.456V20.52ZM225.056 32.04H237.616V38.58H225.056V32.04ZM235.016 34.12H227.676V36.48H235.016V34.12Z" fill="#272828"/>
</svg>
