<svg width="228" height="40" viewBox="0 0 228 40" fill="none" xmlns="http://www.w3.org/2000/svg">
<path d="M53.9905 23.7801C53.4505 23.7801 52.9905 23.8601 52.6105 24.0101C52.2305 24.1601 51.9305 24.3801 51.7305 24.6501C51.5305 24.9201 51.4305 25.2301 51.4305 25.5801C51.4305 26.0801 51.6605 26.4801 52.1105 26.7801C52.5605 27.0801 53.1705 27.3201 53.9305 27.4901L55.3305 27.8301C56.7705 28.1501 57.9105 28.6801 58.7405 29.4201C59.5705 30.1601 59.9905 31.1501 59.9905 32.3801C59.9905 33.3301 59.7505 34.1601 59.2705 34.8601C58.7905 35.5601 58.1005 36.1001 57.2005 36.4801C56.3005 36.8601 55.2205 37.0501 53.9805 37.0501C52.7405 37.0501 51.6305 36.8601 50.7005 36.4701C49.7705 36.0801 49.0505 35.5101 48.5405 34.7601C48.0505 34.0401 47.7805 33.1701 47.7305 32.1401C47.7305 32.0601 47.7905 31.9801 47.8805 31.9801H50.7405C50.8105 31.9801 50.8705 32.0401 50.8705 32.1101C50.9405 32.8101 51.2405 33.3601 51.7705 33.7401C52.3305 34.1401 53.0505 34.3501 53.9405 34.3501C54.5005 34.3501 54.9905 34.2701 55.4105 34.1001C55.8305 33.9301 56.1605 33.7101 56.3905 33.4101C56.6205 33.1101 56.7305 32.7801 56.7305 32.3901C56.7305 31.8901 56.5105 31.4901 56.0805 31.2001C55.6505 30.9101 54.9705 30.6401 54.0705 30.4201L52.3705 30.0101C49.5505 29.3101 48.1405 27.9001 48.1405 25.7801C48.1405 24.8501 48.3905 24.0301 48.9005 23.3101C49.4105 22.6001 50.1105 22.0501 51.0005 21.6601C51.9005 21.2701 52.9105 21.0801 54.0305 21.0801C55.1505 21.0801 56.1605 21.2801 57.0305 21.6701C57.9005 22.0601 58.5705 22.6101 59.0505 23.3201C59.5005 23.9901 59.7505 24.7401 59.7905 25.5901C59.7905 25.6701 59.7205 25.7401 59.6405 25.7401H56.8205C56.7505 25.7401 56.7005 25.6901 56.6905 25.6201C56.6005 25.0601 56.3405 24.6201 55.9005 24.3001C55.4305 23.9601 54.8005 23.7801 54.0205 23.7801H53.9905Z" fill="#272828"/>
<path d="M64.5394 21.2793C64.6094 21.2793 64.6594 21.3293 64.6794 21.3893L67.2693 32.1493H67.3994L70.2294 21.3893C70.2494 21.3293 70.2994 21.2793 70.3694 21.2793H73.1794C73.2394 21.2793 73.2994 21.3193 73.3194 21.3893L76.1494 32.1793H76.2794L78.8694 21.3993C78.8894 21.3393 78.9394 21.2893 79.0094 21.2893H82.2294C82.3194 21.2893 82.3894 21.3793 82.3694 21.4693L77.9994 36.7393C77.9794 36.7993 77.9294 36.8393 77.8594 36.8393H74.9193C74.8593 36.8393 74.7994 36.7993 74.7794 36.7393L71.8393 26.5693H71.7094L68.7494 36.7393C68.7294 36.7993 68.6794 36.8393 68.6094 36.8393H65.6693C65.6093 36.8393 65.5493 36.7993 65.5293 36.7393L61.1594 21.4693C61.1294 21.3793 61.1994 21.2893 61.2994 21.2893H64.5193L64.5394 21.2793Z" fill="#272828"/>
<path d="M93.6985 25.5005C94.3985 26.1305 95.2685 26.6105 96.2985 26.9605C96.3885 26.9905 96.4285 27.0905 96.3785 27.1705L94.9585 29.2905C94.9185 29.3505 94.8485 29.3705 94.7885 29.3505C93.6985 28.9605 92.7685 28.4105 91.9885 27.7205C91.2585 27.0705 90.6685 26.3005 90.2285 25.4105C90.1785 25.3005 90.0285 25.3105 89.9885 25.4105C89.4985 26.4605 88.8485 27.3705 88.0385 28.1505C87.1785 28.9705 86.1485 29.5905 84.9285 30.0105C84.8685 30.0305 84.7885 30.0105 84.7585 29.9505L83.3385 27.7805C83.2885 27.7005 83.3285 27.6005 83.4085 27.5705C84.5185 27.1905 85.4485 26.6605 86.1985 25.9805C86.9885 25.2605 87.5685 24.4305 87.9485 23.5105C88.3285 22.5905 88.5185 21.6005 88.5285 20.5605V18.7405C88.5285 18.6605 88.5885 18.6005 88.6685 18.6005H91.4385C91.5185 18.6005 91.5785 18.6605 91.5785 18.7405V20.4205C91.5785 21.4205 91.7385 22.3505 92.0885 23.2105C92.4385 24.0705 92.9885 24.8405 93.7185 25.5105L93.6985 25.5005ZM100.718 32.5905C101.318 33.2205 101.618 33.9705 101.628 34.8505C101.628 35.7305 101.318 36.4805 100.718 37.1005C100.118 37.7205 99.2585 38.2005 98.1585 38.5305C97.0485 38.8605 95.7285 39.0205 94.1985 39.0205C92.6685 39.0205 91.3485 38.8605 90.2385 38.5305C89.1285 38.2005 88.2785 37.7305 87.6785 37.1005C87.0785 36.4805 86.7885 35.7305 86.7885 34.8505C86.7885 33.9705 87.0885 33.2205 87.6785 32.5905C88.2785 31.9605 89.1285 31.4805 90.2385 31.1505C91.3485 30.8205 92.6685 30.6505 94.1985 30.6505C95.7285 30.6505 97.0385 30.8205 98.1585 31.1505C99.2685 31.4805 100.128 31.9605 100.728 32.5905H100.718ZM89.7885 34.8505C89.7885 35.4405 90.1685 35.8905 90.9185 36.2105C91.6685 36.5205 92.7685 36.6805 94.1885 36.6805C95.6085 36.6805 96.7185 36.5205 97.4785 36.2105C98.2385 35.9005 98.6185 35.4505 98.6185 34.8505C98.6185 34.2505 98.2385 33.7805 97.4885 33.4705C96.7385 33.1605 95.6385 33.0005 94.1885 33.0005C92.7385 33.0005 91.6485 33.1505 90.8985 33.4605C90.1485 33.7705 89.7785 34.2305 89.7785 34.8505H89.7885ZM98.5585 29.9505V24.0305C98.5585 23.9505 98.4985 23.8905 98.4185 23.8905H94.6485C94.5685 23.8905 94.5085 23.8305 94.5085 23.7505V21.5705C94.5085 21.4905 94.5685 21.4305 94.6485 21.4305H98.4185C98.4985 21.4305 98.5585 21.3705 98.5585 21.2905V17.6205C98.5585 17.5405 98.6185 17.4805 98.6985 17.4805H101.418C101.498 17.4805 101.558 17.5405 101.558 17.6205V29.9605C101.558 30.0405 101.498 30.1005 101.418 30.1005H98.6985C98.6185 30.1005 98.5585 30.0405 98.5585 29.9605V29.9505Z" fill="#272828"/>
<path d="M117.362 32.3407V34.4707C117.362 34.5507 117.302 34.6107 117.222 34.6107H104.312C104.232 34.6107 104.172 34.5507 104.172 34.4707V32.3407C104.172 32.2607 104.232 32.2007 104.312 32.2007H107.982C108.062 32.2007 108.122 32.1407 108.122 32.0607V25.9507C108.122 25.8707 108.182 25.8107 108.262 25.8107H110.962C111.042 25.8107 111.102 25.8707 111.102 25.9507V32.0607C111.102 32.1407 111.162 32.2007 111.242 32.2007H117.212C117.292 32.2007 117.352 32.2607 117.352 32.3407H117.362ZM116.482 21.6807V29.4707C116.482 29.5507 116.422 29.6107 116.342 29.6107H113.612C113.532 29.6107 113.472 29.5507 113.472 29.4707V22.1807C113.472 22.1007 113.412 22.0407 113.332 22.0407H105.462C105.382 22.0407 105.322 21.9807 105.322 21.9007V19.7707C105.322 19.6907 105.382 19.6307 105.462 19.6307H116.352C116.432 19.6307 116.492 19.6907 116.492 19.7707V21.6907L116.482 21.6807ZM124.372 26.2807V28.5107C124.372 28.5907 124.312 28.6507 124.232 28.6507H121.582C121.502 28.6507 121.442 28.7107 121.442 28.7907V38.8807C121.442 38.9607 121.382 39.0207 121.302 39.0207H118.532C118.452 39.0207 118.392 38.9607 118.392 38.8807V17.6107C118.392 17.5307 118.452 17.4707 118.532 17.4707H121.302C121.382 17.4707 121.442 17.5307 121.442 17.6107V25.9907C121.442 26.0707 121.502 26.1307 121.582 26.1307H124.232C124.312 26.1307 124.372 26.1907 124.372 26.2707V26.2807Z" fill="#272828"/>
<path d="M138.411 28.4107V30.5407C138.411 30.6207 138.351 30.6807 138.271 30.6807H125.171C125.091 30.6807 125.031 30.6207 125.031 30.5407V28.4107C125.031 28.3307 125.091 28.2707 125.171 28.2707H128.891C128.971 28.2707 129.031 28.2107 129.031 28.1307V24.1507C129.031 24.0707 129.091 24.0107 129.171 24.0107H131.891C131.971 24.0107 132.031 24.0707 132.031 24.1507V28.1307C132.031 28.2107 132.091 28.2707 132.171 28.2707H138.261C138.341 28.2707 138.401 28.3307 138.401 28.4107H138.411ZM137.391 23.4907V26.5607C137.391 26.6407 137.331 26.7007 137.251 26.7007H134.571C134.491 26.7007 134.431 26.6407 134.431 26.5607V21.6307C134.431 21.5507 134.371 21.4907 134.291 21.4907H126.451C126.371 21.4907 126.311 21.4307 126.311 21.3507V19.1707C126.311 19.0907 126.371 19.0307 126.451 19.0307H137.391V23.4907ZM128.201 38.5007V32.3007C128.201 32.2207 128.261 32.1607 128.341 32.1607H131.091C131.171 32.1607 131.231 32.2207 131.231 32.3007V36.0907C131.231 36.1707 131.291 36.2307 131.371 36.2307H143.191C143.271 36.2307 143.331 36.2907 143.331 36.3707V38.5007C143.331 38.5807 143.271 38.6407 143.191 38.6407H128.341C128.261 38.6407 128.201 38.5807 128.201 38.5007ZM145.281 24.1707V26.4207C145.281 26.5007 145.221 26.5607 145.141 26.5607H142.821C142.741 26.5607 142.681 26.6207 142.681 26.7007V33.4507C142.681 33.5307 142.621 33.5907 142.541 33.5907H139.721C139.641 33.5907 139.581 33.5307 139.581 33.4507V17.6107C139.581 17.5307 139.641 17.4707 139.721 17.4707H142.541C142.621 17.4707 142.681 17.5307 142.681 17.6107V23.8907C142.681 23.9707 142.741 24.0307 142.821 24.0307H145.141C145.221 24.0307 145.281 24.0907 145.281 24.1707Z" fill="#272828"/>
<path d="M150.56 27.7207V31.3907C150.56 31.4707 150.62 31.5307 150.7 31.5307H159.65C159.73 31.5307 159.79 31.5907 159.79 31.6707V33.8707C159.79 33.9507 159.73 34.0107 159.65 34.0107H147.57C147.49 34.0107 147.43 33.9507 147.43 33.8707V25.3207C147.43 25.2407 147.49 25.1807 147.57 25.1807H154.44C154.52 25.1807 154.58 25.1207 154.58 25.0407V21.8407C154.58 21.7607 154.52 21.7007 154.44 21.7007H147.55C147.47 21.7007 147.41 21.6407 147.41 21.5607V19.4107C147.41 19.3307 147.47 19.2707 147.55 19.2707H157.52C157.6 19.2707 157.66 19.3307 157.66 19.4107V27.4407C157.66 27.5207 157.6 27.5807 157.52 27.5807H150.7C150.62 27.5807 150.56 27.6407 150.56 27.7207ZM161.33 38.9207V17.6107C161.33 17.5307 161.39 17.4707 161.47 17.4707H164.19C164.27 17.4707 164.33 17.5307 164.33 17.6107V38.9207C164.33 39.0007 164.27 39.0607 164.19 39.0607H161.47C161.39 39.0607 161.33 39.0007 161.33 38.9207Z" fill="#272828"/>
<path d="M178.07 29.6107C178.85 30.5407 179.79 31.2507 180.9 31.7507C180.98 31.7907 181.01 31.8907 180.96 31.9607L179.36 34.1307C179.32 34.1907 179.24 34.2107 179.17 34.1807C178.02 33.6407 177.02 32.8807 176.19 31.8907C175.4 30.9607 174.76 29.8907 174.27 28.6607C174.22 28.5407 174.05 28.5407 174.01 28.6607C173.52 30.0107 172.86 31.1907 172.03 32.2107C171.16 33.2807 170.11 34.1107 168.88 34.6907C168.81 34.7207 168.73 34.7007 168.69 34.6407L167.04 32.3707C166.99 32.3007 167.02 32.1907 167.1 32.1607C168.24 31.6507 169.22 30.9107 170.01 29.9407C170.8 28.9707 171.48 27.7607 171.9 26.4507C172.32 25.1407 172.54 23.7707 172.55 22.3307V19.2607C172.55 19.1807 172.62 19.1107 172.7 19.1107H175.46C175.54 19.1107 175.61 19.1807 175.61 19.2607V22.3307C175.61 23.6807 175.82 24.9807 176.23 26.2407C176.64 27.5007 177.25 28.6207 178.07 29.5907V29.6107ZM182.22 38.7907V17.7507C182.22 17.6007 182.34 17.4707 182.5 17.4707H185C185.15 17.4707 185.28 17.5907 185.28 17.7507V38.7907C185.28 38.9407 185.16 39.0707 185 39.0707H182.5C182.35 39.0707 182.22 38.9507 182.22 38.7907Z" fill="#272828"/>
<path d="M188.191 36.22V34.03C188.191 33.95 188.261 33.88 188.341 33.88H207.771C207.851 33.88 207.921 33.95 207.921 34.03V36.22C207.921 36.3 207.851 36.37 207.771 36.37H188.341C188.261 36.37 188.191 36.3 188.191 36.22ZM203.111 26.13C204.181 26.83 205.421 27.32 206.831 27.6C207.011 27.64 207.121 27.84 207.031 28L205.981 29.98C205.921 30.09 205.791 30.16 205.661 30.13C203.901 29.76 202.371 29.1 201.051 28.15C199.831 27.27 198.871 26.22 198.171 25C198.061 24.81 197.801 24.81 197.691 25C196.981 26.22 196.011 27.26 194.791 28.15C193.481 29.1 191.951 29.76 190.211 30.14C190.081 30.17 189.951 30.11 189.891 29.99L188.861 28C188.771 27.83 188.871 27.64 189.061 27.6C190.451 27.31 191.671 26.82 192.731 26.12C193.881 25.36 194.771 24.47 195.381 23.44C196.001 22.41 196.311 21.37 196.321 20.31V19.03C196.321 18.87 196.451 18.75 196.601 18.75H199.251C199.411 18.75 199.531 18.88 199.531 19.03V20.31C199.531 21.38 199.841 22.43 200.451 23.46C201.061 24.49 201.951 25.38 203.111 26.14V26.13Z" fill="#272828"/>
<path d="M212.878 21.3207V22.7607C212.878 22.8307 212.938 22.8907 213.008 22.8907H217.258C217.328 22.8907 217.388 22.9507 217.388 23.0207V25.0707C217.388 25.1407 217.328 25.2007 217.258 25.2007H213.008C212.938 25.2007 212.878 25.2607 212.878 25.3307V26.9407C212.878 27.0107 212.938 27.0707 213.008 27.0707H218.798C218.868 27.0707 218.928 27.1307 218.928 27.2007V29.3107C218.928 29.3807 218.868 29.4407 218.798 29.4407H210.118C210.048 29.4407 209.988 29.3807 209.988 29.3107V18.8507C209.988 18.7807 210.048 18.7207 210.118 18.7207H218.068C218.138 18.7207 218.198 18.7807 218.198 18.8507V21.0207C218.198 21.0907 218.138 21.1507 218.068 21.1507H213.008C212.938 21.1507 212.878 21.2107 212.878 21.2807V21.3207ZM212.948 38.6507V31.3207C212.948 31.2507 213.008 31.1907 213.078 31.1907H227.518C227.588 31.1907 227.648 31.2507 227.648 31.3207V38.6507C227.648 38.7207 227.588 38.7807 227.518 38.7807H213.078C213.008 38.7807 212.948 38.7207 212.948 38.6507ZM224.678 36.2307V33.6807C224.678 33.6107 224.618 33.5507 224.548 33.5507H216.098C216.028 33.5507 215.968 33.6107 215.968 33.6807V36.2307C215.968 36.3007 216.028 36.3607 216.098 36.3607H224.548C224.618 36.3607 224.678 36.3007 224.678 36.2307ZM220.508 30.0507V25.3507C220.508 25.2807 220.448 25.2207 220.378 25.2207H218.468C218.398 25.2207 218.338 25.1607 218.338 25.0907V23.0407C218.338 22.9707 218.398 22.9107 218.468 22.9107H220.378C220.448 22.9107 220.508 22.8507 220.508 22.7807V17.9607C220.508 17.8907 220.568 17.8307 220.638 17.8307H223.238C223.308 17.8307 223.368 17.8907 223.368 17.9607V30.0807C223.368 30.1507 223.308 30.2107 223.238 30.2107H220.638C220.568 30.2107 220.508 30.1507 220.508 30.0807V30.0507ZM224.798 30.1907V17.6007C224.798 17.5307 224.858 17.4707 224.928 17.4707H227.528C227.598 17.4707 227.658 17.5307 227.658 17.6007V30.1907C227.658 30.2607 227.598 30.3207 227.528 30.3207H224.928C224.858 30.3207 224.798 30.2607 224.798 30.1907Z" fill="#272828"/>
<path d="M55.4591 10.6102V15.0402C55.4591 15.1202 55.3891 15.1902 55.3091 15.1902H53.5091C53.4291 15.1902 53.3591 15.1202 53.3591 15.0402V10.6102C53.3591 10.5302 53.2891 10.4602 53.2091 10.4602H47.8191C47.6591 10.4602 47.5391 10.3302 47.5391 10.1802V9.09016C47.5391 8.93016 47.6691 8.81016 47.8191 8.81016H61.0791C61.2391 8.81016 61.3591 8.94016 61.3591 9.09016V10.1802C61.3591 10.3402 61.2291 10.4602 61.0791 10.4602H55.5991C55.5191 10.4602 55.4491 10.5302 55.4491 10.6102H55.4591ZM57.5991 2.26016V0.810156C57.5991 0.730156 57.6691 0.660156 57.7491 0.660156H59.5791C59.6591 0.660156 59.7291 0.730156 59.7291 0.810156V7.19016C59.7291 7.27016 59.6591 7.34016 59.5791 7.34016H49.3191C49.2391 7.34016 49.1691 7.27016 49.1691 7.19016V0.810156C49.1691 0.730156 49.2391 0.660156 49.3191 0.660156H51.1191C51.1991 0.660156 51.2691 0.730156 51.2691 0.810156V2.26016C51.2691 2.34016 51.3391 2.41016 51.4191 2.41016H57.4691C57.5491 2.41016 57.6191 2.34016 57.6191 2.26016H57.5991ZM57.3191 4.07016H51.5491C51.3891 4.07016 51.2691 4.20016 51.2691 4.35016V5.36016C51.2691 5.52016 51.3991 5.64016 51.5491 5.64016H57.3191C57.4791 5.64016 57.5991 5.51016 57.5991 5.36016V4.35016C57.5991 4.19016 57.4691 4.07016 57.3191 4.07016Z" fill="#004EA2"/>
<path d="M69.639 6.18008C70.129 6.62008 70.729 6.96008 71.439 7.21008C71.529 7.24008 71.569 7.35008 71.519 7.43008L70.579 8.84008C70.539 8.90008 70.469 8.92008 70.399 8.90008C69.639 8.63008 68.989 8.25008 68.439 7.76008C67.939 7.31008 67.519 6.78008 67.199 6.18008C67.139 6.07008 66.999 6.08008 66.949 6.18008C66.619 6.85008 66.179 7.44008 65.639 7.94008C65.059 8.48008 64.359 8.90008 63.549 9.19008C63.489 9.21008 63.409 9.19008 63.369 9.13008L62.369 7.71008C62.309 7.63008 62.349 7.52008 62.449 7.49008C63.189 7.24008 63.819 6.88008 64.329 6.42008C64.879 5.92008 65.289 5.35008 65.559 4.71008C65.829 4.07008 65.959 3.39008 65.969 2.68008V1.18008C65.969 1.10008 66.039 1.03008 66.119 1.03008H67.949C68.029 1.03008 68.099 1.10008 68.099 1.18008V2.69008C68.099 3.35008 68.219 3.99008 68.469 4.59008C68.719 5.19008 69.119 5.73008 69.649 6.20008L69.639 6.18008ZM64.679 14.7801V10.2101C64.679 10.1301 64.749 10.0601 64.829 10.0601H66.689C66.769 10.0601 66.839 10.1301 66.839 10.2101V13.0801C66.839 13.1601 66.909 13.2301 66.989 13.2301H74.769C74.929 13.2301 75.049 13.3601 75.049 13.5101V14.6301C75.049 14.7901 74.919 14.9101 74.769 14.9101H64.829C64.749 14.9101 64.679 14.8401 64.679 14.7601V14.7801ZM76.529 4.60008V6.10008C76.529 6.18008 76.459 6.25008 76.379 6.25008H74.629C74.549 6.25008 74.479 6.32008 74.479 6.40008V11.0201C74.479 11.1001 74.409 11.1701 74.329 11.1701H72.499C72.419 11.1701 72.349 11.1001 72.349 11.0201V0.230078C72.349 0.150078 72.419 0.0800781 72.499 0.0800781H74.329C74.409 0.0800781 74.479 0.150078 74.479 0.230078V4.30008C74.479 4.38008 74.549 4.45008 74.629 4.45008H76.379C76.459 4.45008 76.529 4.52008 76.529 4.60008Z" fill="#004EA2"/>
<path d="M80.0087 3.68008V9.83008C80.0087 9.91008 80.0787 9.98008 80.1587 9.98008H84.0787C84.1587 9.98008 84.2287 10.0501 84.2287 10.1301V11.6201C84.2287 11.7001 84.1587 11.7701 84.0787 11.7701H77.8887V1.97008C77.8887 1.89008 77.9587 1.82008 78.0387 1.82008H83.3687C83.4487 1.82008 83.5187 1.89008 83.5187 1.97008V3.38008C83.5187 3.46008 83.4487 3.53008 83.3687 3.53008H80.1587C80.0787 3.53008 80.0087 3.60008 80.0087 3.68008ZM88.5087 15.0401V7.89008C88.5087 7.73008 88.3787 7.61008 88.2287 7.61008H87.3387C87.1787 7.61008 87.0587 7.74008 87.0587 7.89008V14.3101C87.0587 14.3901 86.9887 14.4601 86.9087 14.4601H85.2587C85.1787 14.4601 85.1087 14.3901 85.1087 14.3101V0.480078C85.1087 0.400078 85.1787 0.330078 85.2587 0.330078H86.9087C86.9887 0.330078 87.0587 0.400078 87.0587 0.480078V5.62008C87.0587 5.78008 87.1887 5.90008 87.3387 5.90008H88.2287C88.3887 5.90008 88.5087 5.77008 88.5087 5.62008V0.230078C88.5087 0.150078 88.5787 0.0800781 88.6587 0.0800781H90.3687C90.4487 0.0800781 90.5187 0.150078 90.5187 0.230078V15.0401C90.5187 15.1201 90.4487 15.1901 90.3687 15.1901H88.6587C88.5787 15.1901 88.5087 15.1201 88.5087 15.0401Z" fill="#004EA2"/>
<path d="M92.3989 2.82V1.71C92.3989 1.55 92.5289 1.43 92.6789 1.43H95.5489C95.7089 1.43 95.8289 1.3 95.8289 1.15V0.28C95.8289 0.12 95.9589 0 96.1089 0H97.6489C97.8089 0 97.9289 0.13 97.9289 0.28V1.14C97.9289 1.3 98.0589 1.42 98.2089 1.42H101.059C101.219 1.42 101.339 1.55 101.339 1.7V2.81C101.339 2.97 101.209 3.09 101.059 3.09H92.6589C92.4989 3.09 92.3789 2.96 92.3789 2.81L92.3989 2.82ZM100.129 4.92C100.449 5.34 100.599 5.82 100.599 6.37C100.599 6.92 100.439 7.4 100.129 7.82C99.8189 8.24 99.3789 8.57 98.8089 8.8C98.2389 9.03 97.5989 9.15 96.8789 9.15C96.1589 9.15 95.5089 9.03 94.9389 8.8C94.3689 8.57 93.9289 8.24 93.6089 7.82C93.2889 7.4 93.1289 6.91 93.1289 6.37C93.1289 5.83 93.2889 5.34 93.6089 4.92C93.9289 4.5 94.3689 4.17 94.9389 3.94C95.5089 3.71 96.1589 3.59 96.8789 3.59C97.5989 3.59 98.2489 3.71 98.8089 3.94C99.3689 4.18 99.8089 4.5 100.129 4.92ZM102.259 15.04V12.03C102.259 11.95 102.189 11.88 102.109 11.88H94.4889C94.3289 11.88 94.2089 11.75 94.2089 11.6V10.48C94.2089 10.32 94.3389 10.2 94.4889 10.2H104.229C104.309 10.2 104.379 10.27 104.379 10.35V15.05C104.379 15.13 104.309 15.2 104.229 15.2H102.399C102.319 15.2 102.249 15.13 102.249 15.05L102.259 15.04ZM95.2089 6.38C95.2089 6.75 95.3489 7.04 95.6489 7.24C95.9489 7.44 96.3589 7.54 96.8789 7.54C97.3989 7.54 97.8189 7.44 98.1289 7.24C98.4389 7.04 98.5889 6.75 98.5889 6.38C98.5889 6.01 98.4289 5.7 98.1289 5.5C97.8189 5.29 97.4089 5.19 96.8789 5.19C96.3489 5.19 95.9489 5.29 95.6489 5.5C95.3489 5.71 95.1989 6 95.2089 6.38ZM106.429 4.15V5.58C106.429 5.66 106.359 5.73 106.279 5.73H104.529C104.449 5.73 104.379 5.8 104.379 5.88V9.42C104.379 9.5 104.309 9.57 104.229 9.57H102.399C102.319 9.57 102.249 9.5 102.249 9.42V0.23C102.249 0.15 102.319 0.08 102.399 0.08H104.229C104.309 0.08 104.379 0.15 104.379 0.23V3.85C104.379 3.93 104.449 4 104.529 4H106.279C106.359 4 106.429 4.07 106.429 4.15Z" fill="#004EA2"/>
<path d="M107.349 13.2004V11.7704C107.349 11.6904 107.419 11.6204 107.499 11.6204H110.139C110.219 11.6204 110.289 11.5504 110.289 11.4704V7.02039C110.289 6.94039 110.359 6.87039 110.439 6.87039H112.249C112.329 6.87039 112.399 6.94039 112.399 7.02039V11.3304C112.399 11.4904 112.529 11.6104 112.679 11.6104H113.769C113.929 11.6104 114.049 11.4804 114.049 11.3304V7.02039C114.049 6.94039 114.119 6.87039 114.199 6.87039H115.999C116.079 6.87039 116.149 6.94039 116.149 7.02039V11.4704C116.149 11.5504 116.219 11.6204 116.299 11.6204H120.979C121.059 11.6204 121.129 11.6904 121.129 11.7704V13.2004C121.129 13.2804 121.059 13.3504 120.979 13.3504H107.499C107.419 13.3504 107.349 13.2804 107.349 13.2004ZM119.879 3.05039V9.68039C119.879 9.76039 119.809 9.83039 119.729 9.83039H117.899C117.819 9.83039 117.749 9.76039 117.749 9.68039V3.22039C117.749 3.14039 117.679 3.07039 117.599 3.07039H108.989C108.829 3.07039 108.709 2.94039 108.709 2.79039V1.68039C108.709 1.52039 108.839 1.40039 108.989 1.40039H119.729C119.809 1.40039 119.879 1.47039 119.879 1.55039V3.06039V3.05039Z" fill="#004EA2"/>
<path d="M37.16 35.3409H24.03C19.97 35.3709 19.46 38.0409 19.46 38.0409C18.63 35.0009 14.72 35.3309 14.72 35.3309H1.88V16.5009H14.26C18.38 16.5809 19.47 19.8409 19.47 19.8409C20.82 16.5409 25.07 16.5109 25.07 16.5109H37.15V35.3409H37.16ZM24.24 14.6309C20.63 14.7409 19.5 16.8609 19.5 16.8609C18.35 14.6409 14.88 14.6409 14.88 14.6409H0V37.2009H14.57C16.56 37.2009 17.26 38.1309 17.49 38.8009H21.51C22.21 37.1109 24.24 37.2109 24.24 37.2109H39.05V14.6309H24.24Z" fill="#009A53"/>
<path d="M11.8792 25.1809H6.44922V30.6409H13.9192V30.6209V27.0509H15.8092V30.6409H23.2592V27.0509H25.1492V30.6309H32.6092V28.7409H27.1992V27.0509H32.6192V21.3809H25.1592V25.1709H23.2692V21.3809H21.2292V25.1709H17.8492V21.3809H15.8092V25.1709H13.9292V21.3809H6.45922V23.2609H11.8892V25.1709L11.8792 25.1809ZM11.8792 28.7709H8.48922V27.0609H11.8792V28.7709ZM21.2192 28.7709H17.8392V27.0609H21.2192V28.7709ZM27.1892 23.2709H30.5692V25.1809H27.1892V23.2709Z" fill="#009A53"/>
<path d="M18.4004 4.18984L20.2104 3.58984H18.4004V4.18984Z" fill="#004EA2"/>
<path d="M14.5 6.77969C15.16 6.07969 15.86 6.16969 15.86 6.46969C15.86 6.76969 15.52 7.11969 15.52 7.11969H11.24L8.89 3.73969C8.31 2.86969 7.56 2.48969 6.31 2.48969H0V12.6697C3.83 12.6697 13.27 12.6697 14.38 12.6697C18.63 12.7097 19.46 14.5197 19.46 14.5197C20.35 13.1097 22.06 12.6797 24.71 12.6797H39.05V2.48969H32.66C31.43 2.48969 30.68 2.86969 30.09 3.73969L27.69 7.11969H24.14V4.10969L26.57 1.72969H24.06L24.69 1.17969H19.6C18.58 1.17969 17.77 1.59969 17.48 2.17969H15.69C14.04 2.17969 13.44 3.10969 13.78 4.32969L14.51 6.78969L14.5 6.77969ZM37.16 10.7997H25.18C21.99 10.7997 20.5 11.0197 19.48 12.1197C18.39 11.0597 17.53 10.8097 14.34 10.8097H1.88V4.37969H5.8C6.19 4.37969 6.51 4.45969 6.72 4.56969C6.88 4.65969 7.16 4.84969 7.37 5.12969C7.63 5.48969 9.95 8.88969 9.95 8.88969H16.64C16.64 8.88969 17.26 7.59969 17.64 6.69969C18.03 5.78969 17.9 5.15969 17.07 5.08969C16.37 5.03969 15.93 5.19969 15.86 5.48969L15.56 4.47969C15.38 3.96969 15.51 3.58969 16.22 3.58969H18.39C18.39 3.58969 18.43 2.88969 19.63 2.88969H23.2L22.19 3.81969V8.88969H29.13C29.13 8.88969 31.34 5.48969 31.6 5.12969C31.8 4.84969 32.09 4.65969 32.24 4.56969C32.45 4.45969 32.77 4.35969 33.16 4.35969H37.15V10.8097L37.16 10.7997Z" fill="#004EA2"/>
<path d="M16.5195 32.6504C16.7795 32.5604 17.0095 32.3804 17.1395 32.1504H17.1495V33.7604C17.1495 33.9204 17.1395 34.0504 17.2895 34.1504L16.6895 34.1604C16.8695 34.0604 16.8495 33.9304 16.8495 33.7604V32.6604H16.5195V32.6504Z" fill="#009A53"/>
<path d="M18.0019 34.0402C18.4719 33.9502 18.8819 33.5302 18.8819 33.0502C18.8819 32.7602 18.7219 32.4402 18.3819 32.4402C18.1319 32.4402 17.9619 32.6302 17.9619 32.8702C17.9619 33.1302 18.1319 33.3402 18.4019 33.3402C18.5119 33.3402 18.6119 33.3102 18.7019 33.2502L18.5119 33.4902C18.4419 33.5202 18.3519 33.5302 18.2719 33.5302C17.9319 33.5302 17.6719 33.2802 17.6719 32.9402C17.6719 32.5202 18.0119 32.2402 18.4219 32.2402C18.8719 32.2402 19.1719 32.5902 19.1719 33.0202C19.1719 33.3402 18.9919 33.6602 18.7419 33.8602C18.4819 34.0702 18.1819 34.1702 17.8619 34.2102L18.0019 34.0302V34.0402Z" fill="#009A53"/>
<path d="M20.2891 33.5491C20.0391 33.5491 19.8291 33.5391 19.6791 33.5291L20.2891 32.4991V33.5491ZM20.2891 33.7691V33.8391C20.2891 33.9891 20.3091 34.0891 20.1491 34.1491L20.7091 34.1591C20.5791 34.0891 20.5791 33.9491 20.5791 33.8291V33.7691H20.8091L20.9491 33.4291C20.8491 33.5091 20.7191 33.5491 20.5791 33.5491V32.2891H20.1791L19.2891 33.7791H20.2991L20.2891 33.7691Z" fill="#009A53"/>
<path d="M22.3202 32.4107C22.1302 32.4407 21.9002 32.5807 21.7602 32.7107C21.5602 32.8907 21.4502 33.1307 21.4502 33.4007C21.4502 33.6907 21.6202 34.0107 21.9502 34.0107C22.2002 34.0107 22.3502 33.8207 22.3502 33.5707C22.3502 33.2907 22.2002 33.1007 21.9102 33.1007C21.8002 33.1007 21.6902 33.1307 21.5902 33.1907L21.7802 32.9607C21.8602 32.9207 21.9402 32.9107 22.0302 32.9107C22.3902 32.9107 22.6502 33.1507 22.6502 33.5107C22.6502 33.9107 22.3302 34.2007 21.9302 34.2007C21.4802 34.2007 21.1602 33.8407 21.1602 33.4007C21.1602 32.7207 21.8502 32.2807 22.4702 32.2207L22.3302 32.4007L22.3202 32.4107Z" fill="#009A53"/>
</svg>
