<?xml version="1.0" encoding="UTF-8"?>
<svg id="_레이어_2" data-name="레이어_2" xmlns="http://www.w3.org/2000/svg" version="1.1" viewBox="0 0 291.44 78.8">
  <!-- Generator: Adobe Illustrator 29.7.1, SVG Export Plug-In . SVG Version: 2.1.1 Build 8)  -->
  <defs>
    <style>
      .st0 {
        fill: #272828;
      }

      .st1 {
        fill: #004ea2;
      }

      .st2 {
        fill: #009a53;
      }
    </style>
  </defs>
  <g>
    <path class="st0" d="M64.92,43.65c-.54,0-1,.08-1.38.23-.38.15-.68.37-.88.64-.2.27-.3.58-.3.93,0,.5.23.9.68,1.2s1.06.54,1.82.71l1.4.34c1.44.32,2.58.85,3.41,1.59.83.74,1.25,1.73,1.25,2.96,0,.95-.24,1.78-.72,2.48-.48.7-1.17,1.24-2.07,1.62s-1.98.57-3.22.57-2.35-.19-3.28-.58c-.93-.39-1.65-.96-2.16-1.71-.51-.75-.78-1.68-.81-2.78h3.14c.05.77.35,1.35.91,1.76.56.4,1.28.61,2.17.61.56,0,1.05-.08,1.47-.25s.75-.39.98-.69.34-.63.34-1.02c0-.5-.22-.9-.65-1.19-.43-.29-1.11-.56-2.01-.78l-1.7-.41c-2.82-.7-4.23-2.11-4.23-4.23,0-.93.25-1.75.76-2.47.51-.71,1.21-1.26,2.1-1.65.9-.39,1.91-.58,3.03-.58s2.13.2,3,.59c.87.39,1.54.94,2.02,1.65.48.71.73,1.51.74,2.42h-3.09c-.06-.62-.33-1.1-.81-1.44s-1.1-.52-1.88-.52Z"/>
    <path class="st0" d="M75.58,41.15l2.62,10.87h.13l2.86-10.87h3.03l2.86,10.89h.13l2.62-10.89h3.52l-4.45,15.55h-3.16l-2.96-10.27h-.13l-2.99,10.27h-3.16l-4.45-15.55h3.52Z"/>
    <path class="st0" d="M94.33,56.38v-2.51h19.73v2.51h-19.73ZM109.37,41.65v6.54h2.94v2.37h-16.34v-2.37h2.89v-6.54h-2.98v-2.42h16.53v2.42h-3.03ZM106.38,41.65h-4.5v6.54h4.5v-6.54Z"/>
    <path class="st0" d="M115.29,56.49v-2.49h8.31v-3.24h-6.04v-7.25h12.2v-2.37h-12.22v-2.42h15.2v7.15h-12.15v2.42h12.65v2.46h-6.63v3.24h8.41v2.49h-19.73Z"/>
    <path class="st0" d="M146.95,47.57l-1.52,2.32c-.89-.35-1.66-.82-2.29-1.43-.64-.6-1.15-1.31-1.53-2.13-.4.91-.95,1.7-1.63,2.38-.68.68-1.5,1.21-2.46,1.6l-1.59-2.39c.95-.36,1.73-.84,2.36-1.47s1.08-1.32,1.37-2.1c.29-.77.44-1.57.44-2.4v-.64h-3.43v-2.42h9.59v2.42h-3.22v.66c0,1.22.32,2.33.96,3.33.64,1,1.62,1.76,2.94,2.26ZM151.76,58.89v-5.23h-11.89v-2.39h14.9v7.62h-3.01ZM147.61,50.36v-5.26h-2.39v-2.44h2.39v-4.9h2.87v12.6h-2.87ZM151.9,50.48v-13.14h2.87v13.14h-2.87Z"/>
    <path class="st0" d="M157.2,56.38v-2.46h19.73v2.46h-19.73ZM159.52,50.86v-11.94h15.09v2.44h-12.01v2.27h11.51v2.37h-11.51v2.46h12.17v2.39h-15.25Z"/>
    <path class="st0" d="M191.25,48.13v2.42h-13.38v-2.42h4v-4.26h3.01v4.26h6.37ZM190.24,43.36v3.21h-2.96v-5.21h-8.12v-2.46h11.08v4.46ZM181.05,58.51v-6.49h3.03v4.07h12.1v2.42h-15.13ZM198.12,43.9v2.53h-2.6v7.03h-3.1v-16.13h3.1v6.56h2.6Z"/>
    <path class="st0" d="M203.4,47.45v3.96h9.24v2.49h-12.36v-8.83h7.15v-3.48h-7.18v-2.44h10.25v8.31h-7.1ZM214.18,58.93v-21.6h3.01v21.6h-3.01Z"/>
    <path class="st0" d="M230.91,49.48c.82.98,1.81,1.71,2.99,2.21l-1.78,2.42c-1.2-.54-2.23-1.32-3.1-2.34s-1.55-2.21-2.05-3.58c-.51,1.5-1.21,2.8-2.1,3.91-.9,1.11-1.98,1.95-3.26,2.53l-1.82-2.51c1.22-.51,2.24-1.28,3.08-2.29s1.47-2.18,1.89-3.49c.42-1.31.64-2.68.65-4.12v-3.22h3.05v3.22c0,1.35.21,2.65.62,3.91.41,1.26,1.02,2.38,1.84,3.35ZM235.06,58.93v-21.6h3.05v21.6h-3.05Z"/>
    <path class="st0" d="M241.03,56.23v-2.49h19.73v2.49h-19.73ZM255.95,46c1.17.76,2.53,1.27,4.09,1.54l-1.33,2.51c-1.85-.36-3.46-1.04-4.82-2.03-1.37-.99-2.41-2.19-3.12-3.6-.73,1.41-1.77,2.6-3.14,3.59-1.37.99-2.97,1.67-4.8,2.04l-1.3-2.51c1.54-.28,2.88-.79,4.04-1.55,1.15-.76,2.04-1.65,2.65-2.68.62-1.03.93-2.07.94-3.13v-1.56h3.22v1.56c0,1.07.31,2.12.92,3.15.61,1.03,1.5,1.92,2.66,2.68Z"/>
    <path class="st0" d="M265.73,41.05v1.71h4.52v2.32h-4.52v1.88h6.06v2.38h-8.95v-10.73h8.22v2.44h-5.33ZM265.8,58.65v-7.6h14.71v7.6h-14.71ZM277.52,56.23v-2.82h-8.71v2.82h8.71ZM273.35,50.05v-4.97h-2.18v-2.32h2.18v-5.09h2.87v12.39h-2.87ZM277.64,50.2v-12.86h2.87v12.86h-2.87Z"/>
  </g>
  <g>
    <path class="st1" d="M66.39,30.33v4.73h-2.09v-4.73h-5.83v-1.66h13.83v1.66h-5.91ZM68.53,22.28v-1.74h2.12v6.67h-10.56v-6.67h2.09v1.74h6.34ZM68.53,23.94h-6.34v1.58h6.34v-1.58Z"/>
    <path class="st1" d="M80.57,26.05c.53.47,1.19.84,1.98,1.09l-1.11,1.66c-.81-.27-1.5-.67-2.08-1.18s-1.03-1.13-1.37-1.84c-.34.78-.82,1.45-1.43,2.02-.61.56-1.34.99-2.2,1.29l-1.18-1.68c.82-.25,1.51-.63,2.07-1.13.55-.5.96-1.07,1.23-1.71.27-.64.4-1.32.41-2.03v-1.64h2.12v1.66c0,.66.12,1.3.37,1.9.25.6.65,1.14,1.18,1.61ZM75.61,34.79v-4.86h2.16v3.17h8.22v1.69h-10.38ZM87.47,24.32v1.79h-2.04v4.91h-2.12v-11.07h2.12v4.37h2.04Z"/>
    <path class="st1" d="M90.94,23.4v6.45h4.22v1.78h-6.34v-9.94h5.63v1.71h-3.5ZM99.44,35.06v-7.59h-1.46v6.86h-1.94v-14.13h1.94v5.58h1.46v-5.83h2.01v15.11h-2.01Z"/>
    <path class="st1" d="M103.33,22.97v-1.68h3.44v-1.43h2.11v1.43h3.42v1.68h-8.96ZM111.06,24.79c.32.42.47.91.47,1.45s-.16,1.03-.47,1.45c-.31.42-.75.75-1.32.98s-1.21.35-1.93.35-1.37-.12-1.94-.35-1.01-.56-1.33-.98c-.32-.42-.48-.91-.48-1.45s.16-1.03.48-1.45c.32-.42.76-.75,1.33-.98s1.22-.35,1.94-.35,1.37.12,1.93.35,1,.56,1.32.98ZM113.19,35.06v-3.3h-8.05v-1.69h10.18v5h-2.12ZM106.14,26.24c0,.37.14.66.44.86.3.2.71.3,1.23.3s.94-.1,1.25-.3c.31-.2.46-.49.46-.86s-.16-.68-.46-.88c-.31-.21-.72-.31-1.25-.31s-.93.1-1.23.31c-.3.21-.45.5-.44.88ZM117.36,23.87v1.73h-2.04v3.83h-2.12v-9.48h2.12v3.92h2.04Z"/>
    <path class="st1" d="M118.28,33.22v-1.73h2.94v-4.75h2.11v4.75h1.66v-4.75h2.09v4.75h4.98v1.73h-13.78ZM130.81,22.92v6.77h-2.12v-6.76h-9.05v-1.68h11.17v1.66Z"/>
  </g>
  <path class="st2" d="M48.09,55.21h-13.13c-4.06.03-4.57,2.7-4.57,2.7-.83-3.04-4.74-2.71-4.74-2.71h-12.84v-18.83h12.38c4.12.08,5.21,3.34,5.21,3.34,1.35-3.3,5.6-3.33,5.6-3.33h12.08s0,18.83,0,18.83ZM35.17,34.5c-3.61.11-4.74,2.23-4.74,2.23-1.15-2.22-4.62-2.22-4.62-2.22h-14.88v22.56h14.57c1.99,0,2.69.93,2.92,1.6h4.02c.7-1.69,2.73-1.59,2.73-1.59h14.81v-22.58h-14.81Z"/>
  <path class="st2" d="M22.81,45.05h-5.43v5.46h0s7.47,0,7.47,0v-.02h0v-3.57h1.89v3.59h7.45v-3.59h1.89v3.58h7.46v-1.89h-5.41v-1.69h5.42v-5.67h-7.46v3.79h-1.89v-3.79h-2.04v3.79h-3.38v-3.79h-2.04v3.79h-1.88v-3.79h-7.47v1.88h5.43v1.91ZM22.81,48.64h-3.39v-1.71h3.39v1.71ZM32.15,48.64h-3.38v-1.71h3.38v1.71ZM38.12,43.14h3.38v1.91h-3.38v-1.91Z"/>
  <g>
    <polygon class="st1" points="29.33 24.06 31.14 23.46 29.33 23.46 29.33 24.06"/>
    <path class="st1" d="M25.43,26.65c.66-.7,1.36-.61,1.36-.31s-.34.65-.34.65h-4.28l-2.35-3.38h0c-.58-.87-1.33-1.25-2.58-1.25h-6.31v10.18c3.83,0,13.27,0,14.38,0,4.25.04,5.08,1.85,5.08,1.85.89-1.41,2.6-1.84,5.25-1.84h14.34v-10.19h-6.39c-1.23,0-1.98.38-2.57,1.25h0l-2.4,3.38h-3.55v-3.01l2.43-2.38h-2.51s.63-.55.63-.55h-5.09c-1.02,0-1.83.42-2.12,1h-1.79c-1.65,0-2.25.93-1.91,2.15l.73,2.46ZM48.09,30.67h-11.98c-3.19,0-4.68.22-5.7,1.32-1.09-1.06-1.95-1.31-5.14-1.31h-12.46v-6.43h3.92c.39,0,.71.08.92.19.16.09.44.28.65.56.26.36,2.58,3.76,2.58,3.76h6.69s.62-1.29,1-2.19c.39-.91.26-1.54-.57-1.61-.7-.05-1.14.11-1.21.4l-.3-1.01c-.18-.51-.05-.89.66-.89h2.17s.04-.7,1.24-.7h3.57l-1.01.93v5.07h6.94s2.21-3.4,2.47-3.76c.2-.28.49-.47.64-.56.21-.11.53-.21.92-.21h3.99v6.45Z"/>
  </g>
  <path class="st2" d="M27.46,52.52c.26-.09.49-.27.62-.5h.01v1.61c0,.16-.01.29.14.39h0s-.6.01-.6.01h0c.18-.1.16-.23.16-.4v-1.1h-.33Z"/>
  <path class="st2" d="M28.93,53.91c.47-.09.88-.51.88-.99,0-.29-.16-.61-.5-.61-.25,0-.42.19-.42.43,0,.26.17.47.44.47.11,0,.21-.03.3-.09l-.19.24c-.07.03-.16.04-.24.04-.34,0-.6-.25-.6-.59,0-.42.34-.7.75-.7.45,0,.75.35.75.78,0,.32-.18.64-.43.84-.26.21-.56.31-.88.35l.14-.18Z"/>
  <path class="st2" d="M31.22,53.42c-.25,0-.46-.01-.61-.02l.61-1.03v1.05ZM31.22,53.64v.07c0,.15.02.25-.14.31h0s.56.01.56.01h0c-.13-.07-.13-.21-.13-.33v-.06h.23l.14-.34c-.1.08-.23.12-.37.12v-1.26h-.4l-.89,1.49h1.01Z"/>
  <path class="st2" d="M33.25,52.28c-.19.03-.42.17-.56.3-.2.18-.31.42-.31.69,0,.29.17.61.5.61.25,0,.4-.19.4-.44,0-.28-.15-.47-.44-.47-.11,0-.22.03-.32.09l.19-.23c.08-.04.16-.05.25-.05.36,0,.62.24.62.6,0,.4-.32.69-.72.69-.45,0-.77-.36-.77-.8,0-.68.69-1.12,1.31-1.18l-.14.18Z"/>
</svg>