<svg width="26" height="24" viewBox="0 0 26 24" fill="none" xmlns="http://www.w3.org/2000/svg">
<path fill-rule="evenodd" clip-rule="evenodd" d="M1.89738 2.13829C3.11265 0.825209 4.76067 0.0875637 6.47905 0.0875637C8.19743 0.0875637 9.84546 0.825209 11.0607 2.13829L12.9595 4.18875L14.8583 2.13829C15.4561 1.46932 16.1711 0.935725 16.9618 0.568644C17.7524 0.201564 18.6028 0.00834596 19.4633 0.000264454C20.3237 -0.00781705 21.1771 0.1694 21.9735 0.521575C22.7699 0.87375 23.4935 1.39383 24.1019 2.05147C24.7104 2.70911 25.1916 3.49114 25.5174 4.35192C25.8433 5.21271 26.0072 6.13501 25.9998 7.06502C25.9923 7.99502 25.8135 8.91411 25.4739 9.76864C25.1342 10.6232 24.6405 11.396 24.0216 12.0422L12.9595 24L1.89738 12.0422C0.68249 10.7287 0 8.94747 0 7.09022C0 5.23297 0.68249 3.45176 1.89738 2.13829Z" fill="#E2E2E2"/>
</svg>
